<svg width="1369" height="2698" viewBox="0 0 1369 2698" fill="none" xmlns="http://www.w3.org/2000/svg">
<path d="M1368 0.5C1318.5 336.5 1011 550.5 954 384C954 384 906.499 290 808.75 302.75C711 315.5 746 170 622.5 262C498.999 354 305.5 177.903 162 285C66.4539 356.308 -7.50043 376 1.99962 545C12.3102 728.418 156.499 778.5 156.499 778.5C156.499 778.5 1245.5 939 881 1232C516.5 1525 401.5 1289.5 275.5 1255C184.933 1230.2 127.5 1296.5 127.5 1296.5C40.4996 1420 114.499 1498.5 149 1515C183.5 1531.5 501.698 1553.01 725.5 1528C815 1518 908.365 1453.22 977 1523.5C1045.4 1593.54 977 1775 977 1775C977 1775 951.692 1935.83 886.5 2006.5C849.228 2046.9 818.532 2059.69 770 2085.5C550.167 2202.42 228.286 1845.17 132.5 2075C86.0296 2186.5 91.4685 2280.76 155 2383.5C265 2561.39 620.69 2232.65 688.5 2430.5C712.556 2500.69 621.295 2589.05 688.5 2620.5C717.001 2633.84 746.063 2619.13 777.5 2620.5M777.5 2620.5C764.027 2591.41 768.5 2555 734.5 2546.5C700.528 2538.01 671.67 2532.31 645 2555C616.88 2578.93 612.328 2614.57 628 2648C646.858 2688.23 696.59 2711.17 734.5 2688C758.728 2673.2 778.45 2648.88 777.5 2620.5Z" fill="url(#paint0_linear_1042_195)"/>
<path d="M1368 0.5C1318.5 336.5 1011 550.5 954 384C954 384 906.499 290 808.75 302.75C711 315.5 746 170 622.5 262C498.999 354 305.5 177.903 162 285C66.4539 356.308 -7.50043 376 1.99962 545C12.3102 728.418 156.499 778.5 156.499 778.5C156.499 778.5 1245.5 939 881 1232C516.5 1525 401.5 1289.5 275.5 1255C184.933 1230.2 127.5 1296.5 127.5 1296.5C40.4996 1420 114.499 1498.5 149 1515C183.5 1531.5 501.698 1553.01 725.5 1528C815 1518 908.365 1453.22 977 1523.5C1045.4 1593.54 977 1775 977 1775C977 1775 951.692 1935.83 886.5 2006.5C849.228 2046.9 818.532 2059.69 770 2085.5C550.167 2202.42 228.286 1845.17 132.5 2075C86.0296 2186.5 91.4685 2280.76 155 2383.5C265 2561.39 620.69 2232.65 688.5 2430.5C712.556 2500.69 621.295 2589.05 688.5 2620.5C717.001 2633.84 746.063 2619.13 777.5 2620.5M777.5 2620.5C764.027 2591.41 768.5 2555 734.5 2546.5C700.528 2538.01 671.67 2532.31 645 2555C616.88 2578.93 612.328 2614.57 628 2648C646.858 2688.23 696.59 2711.17 734.5 2688C758.728 2673.2 778.45 2648.88 777.5 2620.5Z" stroke="url(#paint1_linear_1042_195)"/>
<defs>
<linearGradient id="paint0_linear_1042_195" x1="684.588" y1="0.5" x2="684.588" y2="2697.25" gradientUnits="userSpaceOnUse">
<stop offset="0.151042" stop-color="#2E435F" stop-opacity="0.15"/>
<stop offset="0.359375" stop-color="#F26527" stop-opacity="0.15"/>
<stop offset="0.583333" stop-color="#5650AE" stop-opacity="0.1"/>
<stop offset="0.760417" stop-color="#2C7BE5" stop-opacity="0.1"/>
</linearGradient>
<linearGradient id="paint1_linear_1042_195" x1="684.588" y1="0.5" x2="684.588" y2="2697.25" gradientUnits="userSpaceOnUse">
<stop stop-color="#F26527" stop-opacity="0.1"/>
<stop offset="0.302083" stop-color="#43536D" stop-opacity="0.1"/>
<stop offset="0.546875" stop-color="#2C7BE5" stop-opacity="0.1"/>
<stop offset="0.8125" stop-color="#554FAE" stop-opacity="0.1"/>
</linearGradient>
</defs>
</svg>
