<svg width="50" height="10" viewBox="0 0 50 10" fill="none" xmlns="http://www.w3.org/2000/svg">
<g clip-path="url(#clip0_653_99)">
<path d="M5.37685 4.77842H3.21777V5.74091H5.32493C5.44954 5.74091 5.56367 5.69284 5.65703 5.61581C5.7401 5.53878 5.79202 5.42333 5.79202 5.27892C5.79501 5.155 5.75496 5.03348 5.6778 4.93239C5.59472 4.83623 5.50136 4.77842 5.37685 4.77842ZM5.44954 3.61388C5.5429 3.55606 5.58444 3.43096 5.58444 3.26734C5.58444 3.12294 5.5429 3.01713 5.47021 2.94976C5.39753 2.89194 5.30407 2.85352 5.20033 2.85352H3.21777V3.71968H5.15879C5.26263 3.71968 5.36647 3.67161 5.44954 3.61388Z" fill="#F26527"/>
<path d="M8.61536 0.0625H0.467083C0.207676 0.0625 0 0.254982 0 0.485977V8.0511C0 8.28209 0.207676 8.4265 0.456699 8.4265H1.66075V9.93757L3.15545 8.43615H8.61536C8.86448 8.43615 9.02014 8.29174 9.02014 8.0511V0.495627C9.02014 0.264632 8.86439 0.0721504 8.60498 0.0721504L8.61536 0.0625ZM7.24517 6.19348C7.14133 6.36675 6.98567 6.51107 6.79886 6.61705C6.60156 6.7325 6.3836 6.83839 6.13448 6.88647C5.88536 6.94428 5.61557 6.99236 5.3353 6.99236H1.66075V1.60244H5.83354C6.04112 1.60244 6.21755 1.64104 6.3836 1.72763C6.53935 1.80457 6.68473 1.91046 6.79886 2.03557C7.03131 2.29834 7.1563 2.62904 7.15172 2.9692C7.15172 3.21941 7.07903 3.46005 6.94413 3.69105C6.80409 3.92351 6.58509 4.10628 6.32139 4.21077C6.65348 4.29744 6.91298 4.45141 7.11028 4.67276C7.29709 4.90375 7.39045 5.20212 7.39045 5.57753C7.39045 5.81817 7.33853 6.0203 7.23479 6.19348H7.24517Z" fill="#F26527"/>
<path d="M14.6459 6.95361C14.2826 6.95361 13.9297 6.90553 13.5768 6.79964C13.2457 6.70022 12.9413 6.53615 12.6841 6.31844L13.1512 5.58694C13.4108 5.75056 13.6598 5.87566 13.9089 5.9719C14.1317 6.06162 14.372 6.1075 14.6148 6.10666C14.7809 6.10666 14.9158 6.07779 15.0092 6.02007C15.1027 5.9719 15.1442 5.88531 15.1442 5.77942C15.1442 5.68318 15.0923 5.58694 14.9677 5.52921C14.7726 5.44249 14.567 5.37783 14.3553 5.33664L13.6287 5.1153C13.4314 5.03827 13.2757 4.96133 13.1512 4.87465C13.0266 4.79771 12.9332 4.69182 12.8814 4.58602C12.8249 4.4645 12.7965 4.33326 12.7983 4.20088C12.7954 4.01374 12.8377 3.82838 12.9221 3.65847C13.0065 3.48855 13.1309 3.33843 13.2862 3.21917C13.4315 3.10372 13.6183 3.01713 13.8259 2.94975C14.0335 2.88237 14.2619 2.85351 14.5006 2.85351C14.8224 2.85351 15.1234 2.89194 15.4036 2.96896C15.684 3.05555 15.9538 3.19996 16.2133 3.41174L15.7046 4.13359C15.5037 4.00027 15.288 3.88733 15.0611 3.7967C14.8638 3.71968 14.6874 3.69081 14.5006 3.69081C14.3656 3.69081 14.2411 3.71011 14.1476 3.76784C14.0438 3.81592 14.0024 3.9026 14.0024 4.01805C14.0024 4.13359 14.0543 4.21053 14.1581 4.26835C14.2619 4.32607 14.4694 4.3838 14.7497 4.45118C15.0099 4.51193 15.2663 4.58582 15.5178 4.67252C15.7255 4.74955 15.8915 4.83623 16.0264 4.92282C16.1519 5.00841 16.252 5.12216 16.3173 5.25344C16.3827 5.38472 16.4111 5.52925 16.4001 5.67353C16.4001 6.06814 16.2444 6.37617 15.9226 6.60716C15.6113 6.83816 15.196 6.9537 14.6459 6.9537V6.95361ZM19.784 6.67454C19.5843 6.75031 19.3797 6.81459 19.1715 6.86702C18.9432 6.92475 18.7148 6.96326 18.4761 6.96326C18.3099 6.96326 18.1647 6.94396 18.0194 6.90553C17.8782 6.86736 17.7473 6.80176 17.6354 6.71305C17.5315 6.63603 17.4485 6.52057 17.3862 6.39547C17.3239 6.26063 17.2823 6.09701 17.2823 5.90453V3.83522H16.7426V2.93045H17.2928V1.66958H18.5799V2.9208H19.4518V3.83522H18.5799V5.4907C18.5799 5.6158 18.6111 5.71204 18.6838 5.77942C18.7564 5.82759 18.8498 5.85645 18.9536 5.85645C19.0574 5.85645 19.1612 5.8468 19.2546 5.80828C19.3584 5.77942 19.4519 5.75056 19.5245 5.71204L19.7736 6.67445H19.784V6.67454ZM22.2128 6.95361C21.8826 6.95896 21.5545 6.90335 21.2475 6.78999C20.9807 6.69221 20.7391 6.54303 20.5388 6.35227C20.3384 6.1615 20.1837 5.93347 20.085 5.68318C19.8811 5.18071 19.8811 4.62641 20.085 4.12394C20.1837 3.87365 20.3384 3.64562 20.5388 3.45485C20.7391 3.26409 20.9807 3.11491 21.2475 3.01713C21.5278 2.91124 21.8496 2.85351 22.2128 2.85351C22.525 2.83982 22.8366 2.88858 23.1267 2.9965C23.4168 3.10441 23.6786 3.26897 23.8944 3.47903C24.0917 3.66195 24.237 3.88329 24.3408 4.12394C24.5533 4.62826 24.5533 5.18851 24.3408 5.69283C24.2414 5.94012 24.0876 6.16542 23.8892 6.35434C23.6908 6.54326 23.4521 6.69164 23.1885 6.78999C22.8784 6.90462 22.5466 6.96025 22.2128 6.95361ZM21.2787 4.91317C21.2787 5.2211 21.3617 5.4714 21.5382 5.65432C21.7251 5.8468 21.9533 5.94304 22.2232 5.94304C22.3518 5.94537 22.4794 5.92061 22.5962 5.87061C22.713 5.8206 22.8162 5.74666 22.8979 5.65432C22.9839 5.55687 23.0506 5.4461 23.0952 5.32708C23.1471 5.20189 23.1679 5.05757 23.1679 4.91317C23.1679 4.59558 23.0744 4.34528 22.8979 4.16245C22.7215 3.96997 22.4931 3.87373 22.2232 3.87373C22.095 3.87342 21.9682 3.89908 21.8517 3.94893C21.7351 3.99877 21.6317 4.07161 21.5486 4.16237C21.4655 4.25869 21.3928 4.35494 21.3409 4.48969C21.2941 4.62647 21.273 4.76973 21.2786 4.91317H21.2787ZM27.8492 3.96032C27.5377 3.96032 27.2471 4.00849 26.9876 4.10473C26.7593 4.17603 26.5648 4.31892 26.4375 4.5089V6.88623H25.14V2.93045H26.3337V3.71968C26.4791 3.45017 26.6658 3.23847 26.9045 3.09415C27.133 2.9401 27.3717 2.86307 27.6312 2.85351H27.7661L27.8492 2.86316V3.96032ZM28.42 7.47342C28.6006 7.53161 28.7895 7.56406 28.9805 7.56966C29.1363 7.56966 29.2608 7.52149 29.3543 7.42525C29.4373 7.32901 29.5099 7.13653 29.5826 6.88623L27.9633 2.93045H29.3024L30.2884 5.8468L31.1499 2.93045H32.3644L30.7348 7.52149C30.4791 8.30133 29.6222 8.76973 28.7626 8.59953C28.6587 8.58023 28.5341 8.55136 28.42 8.50329V7.47333V7.47342ZM35.4368 6.95361C35.1151 6.95361 34.8245 6.89588 34.5857 6.76113C34.3433 6.6377 34.1421 6.45453 34.0044 6.23176V6.88623H32.8732V1.38086H34.181V3.57536C34.3206 3.34913 34.5238 3.16244 34.7688 3.03529C35.0138 2.90813 35.2914 2.8453 35.5719 2.85351C35.8418 2.85351 36.0909 2.90159 36.3193 3.01713C36.5476 3.11337 36.7344 3.26734 36.9109 3.45017C37.1627 3.77404 37.3279 4.14898 37.3929 4.54398C37.4579 4.93898 37.4208 5.34268 37.2846 5.72169C37.1807 5.9719 37.0355 6.19325 36.859 6.37617C36.6786 6.55946 36.4588 6.70555 36.2139 6.80502C35.9689 6.90448 35.7042 6.9551 35.4369 6.95361H35.4368ZM35.0736 5.94304C35.4949 5.94392 35.8703 5.69634 36.0078 5.32708C36.1599 4.93931 36.0853 4.50592 35.8105 4.18167C35.7303 4.08394 35.6266 4.00514 35.5076 3.95164C35.3886 3.89814 35.2577 3.87145 35.1255 3.87373C34.9282 3.87373 34.7414 3.94111 34.565 4.06621C34.3988 4.20097 34.2639 4.3645 34.1705 4.56672V5.39446C34.2528 5.55505 34.3822 5.6908 34.5437 5.78614C34.7053 5.88147 34.8926 5.93251 35.084 5.93339L35.0736 5.94304ZM38.063 1.38086H39.3605V5.4714C39.3605 5.77942 39.4955 5.92383 39.7757 5.92383C39.9238 5.92423 40.0698 5.89121 40.2012 5.82759L40.3777 6.72262C40.0141 6.87028 39.6223 6.94882 39.2255 6.95361C38.8519 6.95361 38.5612 6.85737 38.364 6.68419C38.1564 6.49162 38.0525 6.24141 38.0525 5.89488V1.38086H38.0629H38.063ZM42.8273 6.95361C42.4971 6.95895 42.169 6.90334 41.8621 6.78999C41.5936 6.69283 41.3503 6.54398 41.1481 6.35322C40.946 6.16247 40.7895 5.93412 40.6891 5.68318C40.5417 5.31172 40.5044 4.9103 40.5811 4.52088C40.6578 4.13145 40.8457 3.76833 41.1251 3.46947C41.3327 3.27699 41.561 3.13258 41.8517 3.01713C42.1319 2.91124 42.4537 2.85351 42.817 2.85351C43.1291 2.83982 43.4408 2.88858 43.7309 2.9965C44.021 3.10441 44.2828 3.26897 44.4985 3.47903C44.7062 3.66195 44.8411 3.88329 44.9448 4.12394C45.0979 4.49456 45.1381 4.89718 45.0613 5.28767C44.9844 5.67816 44.7933 6.04143 44.5089 6.33765C44.3057 6.53657 44.0576 6.69107 43.7823 6.78999C43.4754 6.90335 43.1472 6.95896 42.817 6.95361H42.8274H42.8273ZM41.8828 4.91317C41.8828 5.2211 41.9659 5.4714 42.1423 5.65432C42.3291 5.8468 42.5575 5.94304 42.8274 5.94304C42.9559 5.94468 43.0831 5.9196 43.1999 5.86965C43.3166 5.81969 43.4198 5.74612 43.502 5.65432C43.588 5.55687 43.6548 5.4461 43.6993 5.32708C43.7513 5.20189 43.7719 5.05757 43.7719 4.91317C43.7719 4.59558 43.6785 4.34528 43.502 4.16245C43.3255 3.96997 43.0973 3.87373 42.8274 3.87373C42.6991 3.87341 42.5723 3.89906 42.4558 3.94891C42.3392 3.99875 42.2358 4.0716 42.1526 4.16237C42.0695 4.25869 41.997 4.35494 41.945 4.48969C41.8931 4.62444 41.8827 4.7592 41.8827 4.91317H41.8828ZM48.6194 6.88623L47.5087 5.28857L47.052 5.73126V6.88623H45.7545V1.38086H47.052V4.56672L48.4948 2.93054H49.8753L48.3391 4.63409L49.9999 6.88623H48.6194Z" fill="#060D1C"/>
</g>
<defs>
<clipPath id="clip0_653_99">
<rect width="50" height="10" fill="white"/>
</clipPath>
</defs>
</svg>
